<svg width="1920" height="920" viewBox="0 0 1920 920" fill="none" xmlns="http://www.w3.org/2000/svg">
<g opacity="0.5" clip-path="url(#clip0_747_1559)">
<path fill-rule="evenodd" clip-rule="evenodd" d="M1727.5 544C1729.43 544 1731 542.433 1731 540.5C1731 538.567 1729.43 537 1727.5 537C1725.57 537 1724 538.567 1724 540.5C1724 542.433 1725.57 544 1727.5 544ZM1727.5 545C1729.99 545 1732 542.985 1732 540.5C1732 538.015 1729.99 536 1727.5 536C1725.01 536 1723 538.015 1723 540.5C1723 542.985 1725.01 545 1727.5 545Z" fill="#E1E7F4"/>
<path fill-rule="evenodd" clip-rule="evenodd" d="M1730 537L1920 347L1920.71 347.707L1730.71 537.707L1730 537Z" fill="#E1E7F4"/>
<path fill-rule="evenodd" clip-rule="evenodd" d="M1731 543L1922 734L1921.29 734.707L1730.29 543.707L1731 543Z" fill="#E1E7F4"/>
<path fill-rule="evenodd" clip-rule="evenodd" d="M1728.5 464C1730.43 464 1732 462.433 1732 460.5C1732 458.567 1730.43 457 1728.5 457C1726.57 457 1725 458.567 1725 460.5C1725 462.433 1726.57 464 1728.5 464ZM1728.5 465C1730.99 465 1733 462.985 1733 460.5C1733 458.015 1730.99 456 1728.5 456C1726.01 456 1724 458.015 1724 460.5C1724 462.985 1726.01 465 1728.5 465Z" fill="#E1E7F4"/>
<path fill-rule="evenodd" clip-rule="evenodd" d="M1731 457L1921 267L1921.71 267.707L1731.71 457.707L1731 457Z" fill="#E1E7F4"/>
<path fill-rule="evenodd" clip-rule="evenodd" d="M1732 463L1923 654L1922.29 654.707L1731.29 463.707L1732 463Z" fill="#E1E7F4"/>
<path fill-rule="evenodd" clip-rule="evenodd" d="M1919 847L1490 418L1490.71 417.293L1919.71 846.293L1919 847Z" fill="#E1E7F4"/>
<path fill-rule="evenodd" clip-rule="evenodd" d="M1488.5 418C1489.88 418 1491 416.881 1491 415.5C1491 414.119 1489.88 413 1488.5 413C1487.12 413 1486 414.119 1486 415.5C1486 416.881 1487.12 418 1488.5 418ZM1488.5 419C1490.43 419 1492 417.433 1492 415.5C1492 413.567 1490.43 412 1488.5 412C1486.57 412 1485 413.567 1485 415.5C1485 417.433 1486.57 419 1488.5 419Z" fill="#E1E7F4"/>
<path fill-rule="evenodd" clip-rule="evenodd" d="M1921.82 892L1416.88 387.062L1417.72 386.23L1922.66 891.168L1921.82 892Z" fill="#E1E7F4"/>
<path fill-rule="evenodd" clip-rule="evenodd" d="M1415.12 387.062C1416.74 387.062 1418.06 385.745 1418.06 384.12C1418.06 382.494 1416.74 381.177 1415.12 381.177C1413.49 381.177 1412.18 382.494 1412.18 384.12C1412.18 385.745 1413.49 387.062 1415.12 387.062ZM1415.12 388.239C1417.39 388.239 1419.24 386.395 1419.24 384.12C1419.24 381.844 1417.39 380 1415.12 380C1412.84 380 1411 381.844 1411 384.12C1411 386.395 1412.84 388.239 1415.12 388.239Z" fill="#E1E7F4"/>
<path fill-rule="evenodd" clip-rule="evenodd" d="M1920 812L1856 812L1856 811L1920 811L1920 812Z" fill="#E1E7F4"/>
<path fill-rule="evenodd" clip-rule="evenodd" d="M1852.5 814C1853.88 814 1855 812.881 1855 811.5C1855 810.119 1853.88 809 1852.5 809C1851.12 809 1850 810.119 1850 811.5C1850 812.881 1851.12 814 1852.5 814ZM1852.5 815C1854.43 815 1856 813.433 1856 811.5C1856 809.567 1854.43 808 1852.5 808C1850.57 808 1849 809.567 1849 811.5C1849 813.433 1850.57 815 1852.5 815Z" fill="#E1E7F4"/>
<path fill-rule="evenodd" clip-rule="evenodd" d="M1645 678.001L1307 678.001L1307 677.001L1645 677.001L1645 678.001Z" fill="#E1E7F4"/>
<path fill-rule="evenodd" clip-rule="evenodd" d="M1300 678L974 678L974 677L1300 677L1300 678Z" fill="#E1E7F4"/>
<path fill-rule="evenodd" clip-rule="evenodd" d="M1485 775L868 775L868 774L1485 774L1485 775Z" fill="#E1E7F4"/>
<path fill-rule="evenodd" clip-rule="evenodd" d="M967.836 676.338L544.836 253.338L545.543 252.631L968.543 675.631L967.836 676.338Z" fill="#E1E7F4"/>
<path fill-rule="evenodd" clip-rule="evenodd" d="M897 923.001L617 643.001L617.707 642.294L897.707 922.294L897 923.001Z" fill="#E1E7F4"/>
<path fill-rule="evenodd" clip-rule="evenodd" d="M1371 924.001L856 409.001L856.707 408.294L1371.71 923.294L1371 924.001Z" fill="#E1E7F4"/>
<path fill-rule="evenodd" clip-rule="evenodd" d="M1449 922.001L857 330.001L857.707 329.294L1449.71 921.294L1449 922.001Z" fill="#E1E7F4"/>
<path fill-rule="evenodd" clip-rule="evenodd" d="M856 404L1272 -12.0001L1272.71 -11.293L856.707 404.707L856 404Z" fill="#E1E7F4"/>
<path fill-rule="evenodd" clip-rule="evenodd" d="M857 325L1194 -12.0001L1194.71 -11.293L857.707 325.707L857 325Z" fill="#E1E7F4"/>
<path fill-rule="evenodd" clip-rule="evenodd" d="M540 251.001L-8.74228e-08 251.001L0 250.001L540 250.001L540 251.001Z" fill="#E1E7F4"/>
<path fill-rule="evenodd" clip-rule="evenodd" d="M612 641.001L-8.74228e-08 641.001L0 640.001L612 640.001L612 641.001Z" fill="#E1E7F4"/>
<path fill-rule="evenodd" clip-rule="evenodd" d="M1257 923.001L618 284.001L618.707 283.294L1257.71 922.294L1257 923.001Z" fill="#E1E7F4"/>
<path fill-rule="evenodd" clip-rule="evenodd" d="M613 282.001L-8.74228e-08 282.001L0 281.001L613 281.001L613 282.001Z" fill="#E1E7F4"/>
<path fill-rule="evenodd" clip-rule="evenodd" d="M1303.5 680.001C1304.88 680.001 1306 678.882 1306 677.501C1306 676.12 1304.88 675.001 1303.5 675.001C1302.12 675.001 1301 676.12 1301 677.501C1301 678.882 1302.12 680.001 1303.5 680.001ZM1303.5 681.001C1305.43 681.001 1307 679.434 1307 677.501C1307 675.568 1305.43 674.001 1303.5 674.001C1301.57 674.001 1300 675.568 1300 677.501C1300 679.434 1301.57 681.001 1303.5 681.001Z" fill="#E1E7F4"/>
<path fill-rule="evenodd" clip-rule="evenodd" d="M970.5 680C971.881 680 973 678.881 973 677.5C973 676.119 971.881 675 970.5 675C969.119 675 968 676.119 968 677.5C968 678.881 969.119 680 970.5 680ZM970.5 681C972.433 681 974 679.433 974 677.5C974 675.567 972.433 674 970.5 674C968.567 674 967 675.567 967 677.5C967 679.433 968.567 681 970.5 681Z" fill="#E1E7F4"/>
<path fill-rule="evenodd" clip-rule="evenodd" d="M864.5 777C865.881 777 867 775.881 867 774.5C867 773.119 865.881 772 864.5 772C863.119 772 862 773.119 862 774.5C862 775.881 863.119 777 864.5 777ZM864.5 778C866.433 778 868 776.433 868 774.5C868 772.567 866.433 771 864.5 771C862.567 771 861 772.567 861 774.5C861 776.433 862.567 778 864.5 778Z" fill="#E1E7F4"/>
<path fill-rule="evenodd" clip-rule="evenodd" d="M615.5 643.001C616.881 643.001 618 641.882 618 640.501C618 639.12 616.881 638.001 615.5 638.001C614.119 638.001 613 639.12 613 640.501C613 641.882 614.119 643.001 615.5 643.001ZM615.5 644.001C617.433 644.001 619 642.434 619 640.501C619 638.568 617.433 637.001 615.5 637.001C613.567 637.001 612 638.568 612 640.501C612 642.434 613.567 644.001 615.5 644.001Z" fill="#E1E7F4"/>
<path fill-rule="evenodd" clip-rule="evenodd" d="M616.5 284.001C617.881 284.001 619 282.882 619 281.501C619 280.12 617.881 279.001 616.5 279.001C615.119 279.001 614 280.12 614 281.501C614 282.882 615.119 284.001 616.5 284.001ZM616.5 285.001C618.433 285.001 620 283.434 620 281.501C620 279.568 618.433 278.001 616.5 278.001C614.567 278.001 613 279.568 613 281.501C613 283.434 614.567 285.001 616.5 285.001Z" fill="#E1E7F4"/>
<path fill-rule="evenodd" clip-rule="evenodd" d="M543.5 253.001C544.881 253.001 546 251.882 546 250.501C546 249.12 544.881 248.001 543.5 248.001C542.119 248.001 541 249.12 541 250.501C541 251.882 542.119 253.001 543.5 253.001ZM543.5 254.001C545.433 254.001 547 252.434 547 250.501C547 248.568 545.433 247.001 543.5 247.001C541.567 247.001 540 248.568 540 250.501C540 252.434 541.567 254.001 543.5 254.001Z" fill="#E1E7F4"/>
<path fill-rule="evenodd" clip-rule="evenodd" d="M854.5 409.001C855.881 409.001 857 407.882 857 406.501C857 405.12 855.881 404.001 854.5 404.001C853.119 404.001 852 405.12 852 406.501C852 407.882 853.119 409.001 854.5 409.001ZM854.5 410.001C856.433 410.001 858 408.434 858 406.501C858 404.568 856.433 403.001 854.5 403.001C852.567 403.001 851 404.568 851 406.501C851 408.434 852.567 410.001 854.5 410.001Z" fill="#E1E7F4"/>
<path fill-rule="evenodd" clip-rule="evenodd" d="M855.5 330.001C856.881 330.001 858 328.882 858 327.501C858 326.12 856.881 325.001 855.5 325.001C854.119 325.001 853 326.12 853 327.501C853 328.882 854.119 330.001 855.5 330.001ZM855.5 331.001C857.433 331.001 859 329.434 859 327.501C859 325.568 857.433 324.001 855.5 324.001C853.567 324.001 852 325.568 852 327.501C852 329.434 853.567 331.001 855.5 331.001Z" fill="#E1E7F4"/>
<path fill-rule="evenodd" clip-rule="evenodd" d="M1632.99 921.701L1488.99 777.701L1489.7 776.994L1633.7 920.994L1632.99 921.701Z" fill="#E1E7F4"/>
<path fill-rule="evenodd" clip-rule="evenodd" d="M1485.11 776.64C1486.08 777.617 1487.66 777.617 1488.64 776.64C1489.62 775.664 1489.62 774.081 1488.64 773.105C1487.66 772.129 1486.08 772.129 1485.11 773.105C1484.13 774.081 1484.13 775.664 1485.11 776.64ZM1484.4 777.347C1485.77 778.714 1487.98 778.714 1489.35 777.347C1490.71 775.981 1490.71 773.765 1489.35 772.398C1487.98 771.031 1485.77 771.031 1484.4 772.398C1483.03 773.765 1483.03 775.981 1484.4 777.347Z" fill="#E1E7F4"/>
<path fill-rule="evenodd" clip-rule="evenodd" d="M1731.42 462.424C1730.8 463.374 1729.72 464 1728.5 464C1726.57 464 1725 462.433 1725 460.5C1725 458.567 1726.57 457 1728.5 457C1729.47 457 1730.34 457.393 1730.98 458.028L1920 269.5V651L1731.42 462.424Z" fill="#D9D9D9" fill-opacity="0.2"/>
<g filter="url(#filter0_b_747_1559)">
<path d="M0 873H1399.53L1447 920H0V873Z" fill="#E1E7F4" fill-opacity="0.05"/>
</g>
<g filter="url(#filter1_b_747_1559)">
<path d="M0 485L1012 485L1164 637H0V485Z" fill="url(#paint0_linear_747_1559)" fill-opacity="0.05"/>
</g>
<g filter="url(#filter2_b_747_1559)">
<path d="M0 45.9998L1136 46L1182 -0.000244141H0V45.9998Z" fill="url(#paint1_linear_747_1559)" fill-opacity="0.05"/>
</g>
</g>
<defs>
<filter id="filter0_b_747_1559" x="-4" y="869" width="1455" height="55" filterUnits="userSpaceOnUse" color-interpolation-filters="sRGB">
<feFlood flood-opacity="0" result="BackgroundImageFix"/>
<feGaussianBlur in="BackgroundImageFix" stdDeviation="2"/>
<feComposite in2="SourceAlpha" operator="in" result="effect1_backgroundBlur_747_1559"/>
<feBlend mode="normal" in="SourceGraphic" in2="effect1_backgroundBlur_747_1559" result="shape"/>
</filter>
<filter id="filter1_b_747_1559" x="-4" y="481" width="1172" height="160" filterUnits="userSpaceOnUse" color-interpolation-filters="sRGB">
<feFlood flood-opacity="0" result="BackgroundImageFix"/>
<feGaussianBlur in="BackgroundImageFix" stdDeviation="2"/>
<feComposite in2="SourceAlpha" operator="in" result="effect1_backgroundBlur_747_1559"/>
<feBlend mode="normal" in="SourceGraphic" in2="effect1_backgroundBlur_747_1559" result="shape"/>
</filter>
<filter id="filter2_b_747_1559" x="-4" y="-4" width="1190" height="54" filterUnits="userSpaceOnUse" color-interpolation-filters="sRGB">
<feFlood flood-opacity="0" result="BackgroundImageFix"/>
<feGaussianBlur in="BackgroundImageFix" stdDeviation="2"/>
<feComposite in2="SourceAlpha" operator="in" result="effect1_backgroundBlur_747_1559"/>
<feBlend mode="normal" in="SourceGraphic" in2="effect1_backgroundBlur_747_1559" result="shape"/>
</filter>
<linearGradient id="paint0_linear_747_1559" x1="1100" y1="561" x2="2.10306e-07" y2="561" gradientUnits="userSpaceOnUse">
<stop stop-color="#E1E7F4"/>
<stop offset="1" stop-color="#E1E7F4" stop-opacity="0"/>
</linearGradient>
<linearGradient id="paint1_linear_747_1559" x1="1089.86" y1="23.5" x2="2.08367e-07" y2="23.5" gradientUnits="userSpaceOnUse">
<stop stop-color="#E1E7F4"/>
<stop offset="1" stop-color="#E1E7F4" stop-opacity="0"/>
</linearGradient>
<clipPath id="clip0_747_1559">
<rect width="1920" height="920" fill="white"/>
</clipPath>
</defs>
</svg>
