<svg width="1920" height="1080" viewBox="0 0 1920 1080" fill="none" xmlns="http://www.w3.org/2000/svg">
<g opacity="0.25">
<path fill-rule="evenodd" clip-rule="evenodd" d="M1727.5 641.536C1729.43 641.536 1731 639.728 1731 637.498C1731 635.268 1729.43 633.46 1727.5 633.46C1725.57 633.46 1724 635.268 1724 637.498C1724 639.728 1725.57 641.536 1727.5 641.536ZM1727.5 642.69C1729.99 642.69 1732 640.366 1732 637.498C1732 634.63 1729.99 632.306 1727.5 632.306C1725.01 632.306 1723 634.63 1723 637.498C1723 640.366 1725.01 642.69 1727.5 642.69Z" fill="#E1E7F4"/>
<path fill-rule="evenodd" clip-rule="evenodd" d="M1730 633.461L1920 414.23L1920.71 415.046L1730.71 634.276L1730 633.461Z" fill="#E1E7F4"/>
<path fill-rule="evenodd" clip-rule="evenodd" d="M1731 640.383L1922 860.767L1921.29 861.583L1730.29 641.199L1731 640.383Z" fill="#E1E7F4"/>
<path fill-rule="evenodd" clip-rule="evenodd" d="M1728.5 549.229C1730.43 549.229 1732 547.421 1732 545.19C1732 542.96 1730.43 541.152 1728.5 541.152C1726.57 541.152 1725 542.96 1725 545.19C1725 547.421 1726.57 549.229 1728.5 549.229ZM1728.5 550.383C1730.99 550.383 1733 548.058 1733 545.19C1733 542.323 1730.99 539.998 1728.5 539.998C1726.01 539.998 1724 542.323 1724 545.19C1724 548.058 1726.01 550.383 1728.5 550.383Z" fill="#E1E7F4"/>
<path fill-rule="evenodd" clip-rule="evenodd" d="M1731 541.152L1921 321.921L1921.71 322.737L1731.71 541.968L1731 541.152Z" fill="#E1E7F4"/>
<path fill-rule="evenodd" clip-rule="evenodd" d="M1732 548.075L1923 768.459L1922.29 769.275L1731.29 548.891L1732 548.075Z" fill="#E1E7F4"/>
<path fill-rule="evenodd" clip-rule="evenodd" d="M1919 991.153L1490 496.154L1490.71 495.338L1919.71 990.337L1919 991.153Z" fill="#E1E7F4"/>
<path fill-rule="evenodd" clip-rule="evenodd" d="M1488.5 496.154C1489.88 496.154 1491 494.862 1491 493.269C1491 491.676 1489.88 490.384 1488.5 490.384C1487.12 490.384 1486 491.676 1486 493.269C1486 494.862 1487.12 496.154 1488.5 496.154ZM1488.5 497.307C1490.43 497.307 1492 495.499 1492 493.269C1492 491.039 1490.43 489.23 1488.5 489.23C1486.57 489.23 1485 491.039 1485 493.269C1485 495.499 1486.57 497.307 1488.5 497.307Z" fill="#E1E7F4"/>
<path fill-rule="evenodd" clip-rule="evenodd" d="M1921.82 1043.08L1416.88 460.455L1417.72 459.495L1922.66 1042.12L1921.82 1043.08Z" fill="#E1E7F4"/>
<path fill-rule="evenodd" clip-rule="evenodd" d="M1415.12 460.455C1416.74 460.455 1418.06 458.935 1418.06 457.06C1418.06 455.185 1416.74 453.665 1415.12 453.665C1413.49 453.665 1412.18 455.185 1412.18 457.06C1412.18 458.935 1413.49 460.455 1415.12 460.455ZM1415.12 461.813C1417.39 461.813 1419.24 459.685 1419.24 457.06C1419.24 454.435 1417.39 452.307 1415.12 452.307C1412.84 452.307 1411 454.435 1411 457.06C1411 459.685 1412.84 461.813 1415.12 461.813Z" fill="#E1E7F4"/>
<path fill-rule="evenodd" clip-rule="evenodd" d="M1920 950.769L1856 950.769L1856 949.615L1920 949.615L1920 950.769Z" fill="#E1E7F4"/>
<path fill-rule="evenodd" clip-rule="evenodd" d="M1852.5 953.076C1853.88 953.076 1855 951.785 1855 950.192C1855 948.599 1853.88 947.307 1852.5 947.307C1851.12 947.307 1850 948.599 1850 950.192C1850 951.785 1851.12 953.076 1852.5 953.076ZM1852.5 954.23C1854.43 954.23 1856 952.422 1856 950.192C1856 947.961 1854.43 946.153 1852.5 946.153C1850.57 946.153 1849 947.961 1849 950.192C1849 952.422 1850.57 954.23 1852.5 954.23Z" fill="#E1E7F4"/>
<path fill-rule="evenodd" clip-rule="evenodd" d="M1645 796.154L1307 796.154L1307 795L1645 795L1645 796.154Z" fill="#E1E7F4"/>
<path fill-rule="evenodd" clip-rule="evenodd" d="M1300 796.153L974 796.153L974 794.999L1300 794.999L1300 796.153Z" fill="#E1E7F4"/>
<path fill-rule="evenodd" clip-rule="evenodd" d="M1485 908.076L868 908.076L868 906.922L1485 906.922L1485 908.076Z" fill="#E1E7F4"/>
<path fill-rule="evenodd" clip-rule="evenodd" d="M967.836 794.235L544.836 306.159L545.543 305.343L968.543 793.419L967.836 794.235Z" fill="#E1E7F4"/>
<path fill-rule="evenodd" clip-rule="evenodd" d="M897 1078.85L617 755.769L617.707 754.953L897.707 1078.03L897 1078.85Z" fill="#E1E7F4"/>
<path fill-rule="evenodd" clip-rule="evenodd" d="M1371 1080L856 485.77L856.707 484.954L1371.71 1079.18L1371 1080Z" fill="#E1E7F4"/>
<path fill-rule="evenodd" clip-rule="evenodd" d="M1449 1077.69L857 394.616L857.707 393.8L1449.71 1076.88L1449 1077.69Z" fill="#E1E7F4"/>
<path fill-rule="evenodd" clip-rule="evenodd" d="M856 479.999L1272 -0.000461932L1272.71 0.81543L856.707 480.815L856 479.999Z" fill="#E1E7F4"/>
<path fill-rule="evenodd" clip-rule="evenodd" d="M857 388.845L1194 -0.000461932L1194.71 0.81543L857.707 389.661L857 388.845Z" fill="#E1E7F4"/>
<path fill-rule="evenodd" clip-rule="evenodd" d="M540 303.462L-8.74228e-08 303.462L0 302.309L540 302.309L540 303.462Z" fill="#E1E7F4"/>
<path fill-rule="evenodd" clip-rule="evenodd" d="M612 753.462L-8.74228e-08 753.461L0 752.308L612 752.308L612 753.462Z" fill="#E1E7F4"/>
<path fill-rule="evenodd" clip-rule="evenodd" d="M1257 1078.85L618 341.54L618.707 340.724L1257.71 1078.03L1257 1078.85Z" fill="#E1E7F4"/>
<path fill-rule="evenodd" clip-rule="evenodd" d="M613 339.231L-8.74228e-08 339.231L0 338.077L613 338.077L613 339.231Z" fill="#E1E7F4"/>
<path fill-rule="evenodd" clip-rule="evenodd" d="M1303.5 798.462C1304.88 798.462 1306 797.171 1306 795.578C1306 793.984 1304.88 792.693 1303.5 792.693C1302.12 792.693 1301 793.984 1301 795.578C1301 797.171 1302.12 798.462 1303.5 798.462ZM1303.5 799.616C1305.43 799.616 1307 797.808 1307 795.578C1307 793.347 1305.43 791.539 1303.5 791.539C1301.57 791.539 1300 793.347 1300 795.578C1300 797.808 1301.57 799.616 1303.5 799.616Z" fill="#E1E7F4"/>
<path fill-rule="evenodd" clip-rule="evenodd" d="M970.5 798.461C971.881 798.461 973 797.17 973 795.577C973 793.983 971.881 792.692 970.5 792.692C969.119 792.692 968 793.983 968 795.577C968 797.17 969.119 798.461 970.5 798.461ZM970.5 799.615C972.433 799.615 974 797.807 974 795.577C974 793.346 972.433 791.538 970.5 791.538C968.567 791.538 967 793.346 967 795.577C967 797.807 968.567 799.615 970.5 799.615Z" fill="#E1E7F4"/>
<path fill-rule="evenodd" clip-rule="evenodd" d="M864.5 910.384C865.881 910.384 867 909.093 867 907.499C867 905.906 865.881 904.615 864.5 904.615C863.119 904.615 862 905.906 862 907.499C862 909.093 863.119 910.384 864.5 910.384ZM864.5 911.538C866.433 911.538 868 909.73 868 907.499C868 905.269 866.433 903.461 864.5 903.461C862.567 903.461 861 905.269 861 907.499C861 909.73 862.567 911.538 864.5 911.538Z" fill="#E1E7F4"/>
<path fill-rule="evenodd" clip-rule="evenodd" d="M615.5 755.769C616.881 755.769 618 754.477 618 752.884C618 751.291 616.881 750 615.5 750C614.119 750 613 751.291 613 752.884C613 754.477 614.119 755.769 615.5 755.769ZM615.5 756.923C617.433 756.923 619 755.115 619 752.884C619 750.654 617.433 748.846 615.5 748.846C613.567 748.846 612 750.654 612 752.884C612 755.115 613.567 756.923 615.5 756.923Z" fill="#E1E7F4"/>
<path fill-rule="evenodd" clip-rule="evenodd" d="M616.5 341.539C617.881 341.539 619 340.248 619 338.655C619 337.062 617.881 335.77 616.5 335.77C615.119 335.77 614 337.062 614 338.655C614 340.248 615.119 341.539 616.5 341.539ZM616.5 342.693C618.433 342.693 620 340.885 620 338.655C620 336.424 618.433 334.616 616.5 334.616C614.567 334.616 613 336.424 613 338.655C613 340.885 614.567 342.693 616.5 342.693Z" fill="#E1E7F4"/>
<path fill-rule="evenodd" clip-rule="evenodd" d="M543.5 305.77C544.881 305.77 546 304.478 546 302.885C546 301.292 544.881 300.001 543.5 300.001C542.119 300.001 541 301.292 541 302.885C541 304.478 542.119 305.77 543.5 305.77ZM543.5 306.924C545.433 306.924 547 305.116 547 302.885C547 300.655 545.433 298.847 543.5 298.847C541.567 298.847 540 300.655 540 302.885C540 305.116 541.567 306.924 543.5 306.924Z" fill="#E1E7F4"/>
<path fill-rule="evenodd" clip-rule="evenodd" d="M854.5 485.77C855.881 485.77 857 484.478 857 482.885C857 481.292 855.881 480.001 854.5 480.001C853.119 480.001 852 481.292 852 482.885C852 484.478 853.119 485.77 854.5 485.77ZM854.5 486.924C856.433 486.924 858 485.116 858 482.885C858 480.655 856.433 478.847 854.5 478.847C852.567 478.847 851 480.655 851 482.885C851 485.116 852.567 486.924 854.5 486.924Z" fill="#E1E7F4"/>
<path fill-rule="evenodd" clip-rule="evenodd" d="M855.5 394.615C856.881 394.615 858 393.324 858 391.731C858 390.138 856.881 388.846 855.5 388.846C854.119 388.846 853 390.138 853 391.731C853 393.324 854.119 394.615 855.5 394.615ZM855.5 395.769C857.433 395.769 859 393.961 859 391.731C859 389.5 857.433 387.692 855.5 387.692C853.567 387.692 852 389.5 852 391.731C852 393.961 853.567 395.769 855.5 395.769Z" fill="#E1E7F4"/>
<path fill-rule="evenodd" clip-rule="evenodd" d="M1632.99 1077.35L1488.99 911.193L1489.7 910.377L1633.7 1076.53L1632.99 1077.35Z" fill="#E1E7F4"/>
<path fill-rule="evenodd" clip-rule="evenodd" d="M1485.11 909.969C1486.08 911.095 1487.66 911.095 1488.64 909.969C1489.62 908.842 1489.62 907.016 1488.64 905.889C1487.66 904.763 1486.08 904.763 1485.11 905.889C1484.13 907.016 1484.13 908.842 1485.11 909.969ZM1484.4 910.785C1485.77 912.362 1487.98 912.362 1489.35 910.785C1490.71 909.208 1490.71 906.651 1489.35 905.073C1487.98 903.496 1485.77 903.496 1484.4 905.073C1483.03 906.651 1483.03 909.208 1484.4 910.785Z" fill="#E1E7F4"/>
<path fill-rule="evenodd" clip-rule="evenodd" d="M1731.42 547.411C1730.8 548.507 1729.72 549.23 1728.5 549.23C1726.57 549.23 1725 547.422 1725 545.191C1725 542.961 1726.57 541.153 1728.5 541.153C1729.47 541.153 1730.34 541.606 1730.98 542.339L1920 324.807V764.998L1731.42 547.411Z" fill="#D9D9D9" fill-opacity="0.2"/>
<g filter="url(#filter0_b_747_1561)">
<path d="M0 1021.15H1399.53L1447 1075.38H0V1021.15Z" fill="#E1E7F4" fill-opacity="0.05"/>
</g>
<g filter="url(#filter1_b_747_1561)">
<path d="M0 573.46L1012 573.46L1164 748.844H0V573.46Z" fill="url(#paint0_linear_747_1561)" fill-opacity="0.05"/>
</g>
<g filter="url(#filter2_b_747_1561)">
<path d="M0 66.9216L1136 66.9219L1182 13.8447H0V66.9216Z" fill="url(#paint1_linear_747_1561)" fill-opacity="0.05"/>
</g>
</g>
<defs>
<filter id="filter0_b_747_1561" x="-4" y="1017.15" width="1455" height="62.2305" filterUnits="userSpaceOnUse" color-interpolation-filters="sRGB">
<feFlood flood-opacity="0" result="BackgroundImageFix"/>
<feGaussianBlur in="BackgroundImageFix" stdDeviation="2"/>
<feComposite in2="SourceAlpha" operator="in" result="effect1_backgroundBlur_747_1561"/>
<feBlend mode="normal" in="SourceGraphic" in2="effect1_backgroundBlur_747_1561" result="shape"/>
</filter>
<filter id="filter1_b_747_1561" x="-4" y="569.46" width="1172" height="183.385" filterUnits="userSpaceOnUse" color-interpolation-filters="sRGB">
<feFlood flood-opacity="0" result="BackgroundImageFix"/>
<feGaussianBlur in="BackgroundImageFix" stdDeviation="2"/>
<feComposite in2="SourceAlpha" operator="in" result="effect1_backgroundBlur_747_1561"/>
<feBlend mode="normal" in="SourceGraphic" in2="effect1_backgroundBlur_747_1561" result="shape"/>
</filter>
<filter id="filter2_b_747_1561" x="-4" y="9.84473" width="1190" height="61.0771" filterUnits="userSpaceOnUse" color-interpolation-filters="sRGB">
<feFlood flood-opacity="0" result="BackgroundImageFix"/>
<feGaussianBlur in="BackgroundImageFix" stdDeviation="2"/>
<feComposite in2="SourceAlpha" operator="in" result="effect1_backgroundBlur_747_1561"/>
<feBlend mode="normal" in="SourceGraphic" in2="effect1_backgroundBlur_747_1561" result="shape"/>
</filter>
<linearGradient id="paint0_linear_747_1561" x1="1100" y1="661.152" x2="2.10306e-07" y2="661.152" gradientUnits="userSpaceOnUse">
<stop stop-color="#E1E7F4"/>
<stop offset="1" stop-color="#E1E7F4" stop-opacity="0"/>
</linearGradient>
<linearGradient id="paint1_linear_747_1561" x1="1089.86" y1="40.9604" x2="2.08367e-07" y2="40.9604" gradientUnits="userSpaceOnUse">
<stop stop-color="#E1E7F4"/>
<stop offset="1" stop-color="#E1E7F4" stop-opacity="0"/>
</linearGradient>
</defs>
</svg>
