<svg width="1923" height="944" viewBox="0 0 1923 944" fill="none" xmlns="http://www.w3.org/2000/svg">
<path fill-rule="evenodd" clip-rule="evenodd" d="M1727.5 560.753C1729.43 560.753 1731 559.173 1731 557.223C1731 555.274 1729.43 553.693 1727.5 553.693C1725.57 553.693 1724 555.274 1724 557.223C1724 559.173 1725.57 560.753 1727.5 560.753ZM1727.5 561.761C1729.99 561.761 1732 559.73 1732 557.223C1732 554.717 1729.99 552.685 1727.5 552.685C1725.01 552.685 1723 554.717 1723 557.223C1723 559.73 1725.01 561.761 1727.5 561.761Z" fill="#E1E7F4"/>
<path fill-rule="evenodd" clip-rule="evenodd" d="M1730 553.693L1920 362.069L1920.71 362.782L1730.71 554.406L1730 553.693Z" fill="#E1E7F4"/>
<path fill-rule="evenodd" clip-rule="evenodd" d="M1731 559.743L1922 752.376L1921.29 753.089L1730.29 560.457L1731 559.743Z" fill="#E1E7F4"/>
<path fill-rule="evenodd" clip-rule="evenodd" d="M1728.5 480.067C1730.43 480.067 1732 478.487 1732 476.537C1732 474.588 1730.43 473.008 1728.5 473.008C1726.57 473.008 1725 474.588 1725 476.537C1725 478.487 1726.57 480.067 1728.5 480.067ZM1728.5 481.076C1730.99 481.076 1733 479.044 1733 476.537C1733 474.031 1730.99 471.999 1728.5 471.999C1726.01 471.999 1724 474.031 1724 476.537C1724 479.044 1726.01 481.076 1728.5 481.076Z" fill="#E1E7F4"/>
<path fill-rule="evenodd" clip-rule="evenodd" d="M1731 473.007L1921 281.384L1921.71 282.097L1731.71 473.72L1731 473.007Z" fill="#E1E7F4"/>
<path fill-rule="evenodd" clip-rule="evenodd" d="M1732 479.059L1923 671.691L1922.29 672.404L1731.29 479.772L1732 479.059Z" fill="#E1E7F4"/>
<path fill-rule="evenodd" clip-rule="evenodd" d="M1919 866.342L1490 433.675L1490.71 432.962L1919.71 865.628L1919 866.342Z" fill="#E1E7F4"/>
<path fill-rule="evenodd" clip-rule="evenodd" d="M1488.5 433.675C1489.88 433.675 1491 432.546 1491 431.154C1491 429.761 1489.88 428.633 1488.5 428.633C1487.12 428.633 1486 429.761 1486 431.154C1486 432.546 1487.12 433.675 1488.5 433.675ZM1488.5 434.684C1490.43 434.684 1492 433.103 1492 431.154C1492 429.204 1490.43 427.624 1488.5 427.624C1486.57 427.624 1485 429.204 1485 431.154C1485 433.103 1486.57 434.684 1488.5 434.684Z" fill="#E1E7F4"/>
<path fill-rule="evenodd" clip-rule="evenodd" d="M1921.82 911.726L1416.88 402.473L1417.72 401.634L1922.66 910.887L1921.82 911.726Z" fill="#E1E7F4"/>
<path fill-rule="evenodd" clip-rule="evenodd" d="M1415.12 402.473C1416.74 402.473 1418.06 401.144 1418.06 399.505C1418.06 397.866 1416.74 396.538 1415.12 396.538C1413.49 396.538 1412.18 397.866 1412.18 399.505C1412.18 401.144 1413.49 402.473 1415.12 402.473ZM1415.12 403.66C1417.39 403.66 1419.24 401.8 1419.24 399.505C1419.24 397.211 1417.39 395.351 1415.12 395.351C1412.84 395.351 1411 397.211 1411 399.505C1411 401.8 1412.84 403.66 1415.12 403.66Z" fill="#E1E7F4"/>
<path fill-rule="evenodd" clip-rule="evenodd" d="M1920 831.042L1856 831.042L1856 830.033L1920 830.033L1920 831.042Z" fill="#E1E7F4"/>
<path fill-rule="evenodd" clip-rule="evenodd" d="M1852.5 833.059C1853.88 833.059 1855 831.93 1855 830.538C1855 829.145 1853.88 828.016 1852.5 828.016C1851.12 828.016 1850 829.145 1850 830.538C1850 831.93 1851.12 833.059 1852.5 833.059ZM1852.5 834.068C1854.43 834.068 1856 832.487 1856 830.538C1856 828.588 1854.43 827.008 1852.5 827.008C1850.57 827.008 1849 828.588 1849 830.538C1849 832.487 1850.57 834.068 1852.5 834.068Z" fill="#E1E7F4"/>
<path fill-rule="evenodd" clip-rule="evenodd" d="M1645 695.898L1307 695.898L1307 694.89L1645 694.89L1645 695.898Z" fill="#E1E7F4"/>
<path fill-rule="evenodd" clip-rule="evenodd" d="M1300 695.897L974 695.897L974 694.889L1300 694.889L1300 695.897Z" fill="#E1E7F4"/>
<path fill-rule="evenodd" clip-rule="evenodd" d="M1485 793.726L868 793.726L868 792.718L1485 792.718L1485 793.726Z" fill="#E1E7F4"/>
<path fill-rule="evenodd" clip-rule="evenodd" d="M967.836 694.222L544.836 267.607L545.543 266.894L968.543 693.509L967.836 694.222Z" fill="#E1E7F4"/>
<path fill-rule="evenodd" clip-rule="evenodd" d="M897 942.993L617 660.6L617.707 659.887L897.707 942.28L897 942.993Z" fill="#E1E7F4"/>
<path fill-rule="evenodd" clip-rule="evenodd" d="M1371 944.001L856 424.6L856.707 423.887L1371.71 943.288L1371 944.001Z" fill="#E1E7F4"/>
<path fill-rule="evenodd" clip-rule="evenodd" d="M1449 941.984L857 344.925L857.707 344.212L1449.71 941.271L1449 941.984Z" fill="#E1E7F4"/>
<path fill-rule="evenodd" clip-rule="evenodd" d="M856 419.555L1272 -0.00025908L1272.71 0.712891L856.707 420.268L856 419.555Z" fill="#E1E7F4"/>
<path fill-rule="evenodd" clip-rule="evenodd" d="M857 339.88L1194 -0.00025908L1194.71 0.712891L857.707 340.593L857 339.88Z" fill="#E1E7F4"/>
<path fill-rule="evenodd" clip-rule="evenodd" d="M540 265.249L-8.74228e-08 265.249L0 264.24L540 264.24L540 265.249Z" fill="#E1E7F4"/>
<path fill-rule="evenodd" clip-rule="evenodd" d="M612 658.582L-8.74228e-08 658.582L0 657.573L612 657.573L612 658.582Z" fill="#E1E7F4"/>
<path fill-rule="evenodd" clip-rule="evenodd" d="M1257 942.991L618 298.531L618.707 297.817L1257.71 942.278L1257 942.991Z" fill="#E1E7F4"/>
<path fill-rule="evenodd" clip-rule="evenodd" d="M613 296.514L-8.74228e-08 296.514L0 295.506L613 295.506L613 296.514Z" fill="#E1E7F4"/>
<path fill-rule="evenodd" clip-rule="evenodd" d="M1303.5 697.915C1304.88 697.915 1306 696.786 1306 695.393C1306 694.001 1304.88 692.872 1303.5 692.872C1302.12 692.872 1301 694.001 1301 695.393C1301 696.786 1302.12 697.915 1303.5 697.915ZM1303.5 698.923C1305.43 698.923 1307 697.343 1307 695.393C1307 693.444 1305.43 691.863 1303.5 691.863C1301.57 691.863 1300 693.444 1300 695.393C1300 697.343 1301.57 698.923 1303.5 698.923Z" fill="#E1E7F4"/>
<path fill-rule="evenodd" clip-rule="evenodd" d="M970.5 697.914C971.881 697.914 973 696.785 973 695.392C973 694 971.881 692.871 970.5 692.871C969.119 692.871 968 694 968 695.392C968 696.785 969.119 697.914 970.5 697.914ZM970.5 698.922C972.433 698.922 974 697.342 974 695.392C974 693.443 972.433 691.862 970.5 691.862C968.567 691.862 967 693.443 967 695.392C967 697.342 968.567 698.922 970.5 698.922Z" fill="#E1E7F4"/>
<path fill-rule="evenodd" clip-rule="evenodd" d="M864.5 795.743C865.881 795.743 867 794.614 867 793.221C867 791.829 865.881 790.7 864.5 790.7C863.119 790.7 862 791.829 862 793.221C862 794.614 863.119 795.743 864.5 795.743ZM864.5 796.751C866.433 796.751 868 795.171 868 793.221C868 791.272 866.433 789.691 864.5 789.691C862.567 789.691 861 791.272 861 793.221C861 795.171 862.567 796.751 864.5 796.751Z" fill="#E1E7F4"/>
<path fill-rule="evenodd" clip-rule="evenodd" d="M615.5 660.599C616.881 660.599 618 659.47 618 658.078C618 656.685 616.881 655.556 615.5 655.556C614.119 655.556 613 656.685 613 658.078C613 659.47 614.119 660.599 615.5 660.599ZM615.5 661.608C617.433 661.608 619 660.027 619 658.078C619 656.128 617.433 654.548 615.5 654.548C613.567 654.548 612 656.128 612 658.078C612 660.027 613.567 661.608 615.5 661.608Z" fill="#E1E7F4"/>
<path fill-rule="evenodd" clip-rule="evenodd" d="M616.5 298.531C617.881 298.531 619 297.402 619 296.009C619 294.617 617.881 293.488 616.5 293.488C615.119 293.488 614 294.617 614 296.009C614 297.402 615.119 298.531 616.5 298.531ZM616.5 299.539C618.433 299.539 620 297.959 620 296.009C620 294.06 618.433 292.479 616.5 292.479C614.567 292.479 613 294.06 613 296.009C613 297.959 614.567 299.539 616.5 299.539Z" fill="#E1E7F4"/>
<path fill-rule="evenodd" clip-rule="evenodd" d="M543.5 267.266C544.881 267.266 546 266.137 546 264.745C546 263.352 544.881 262.223 543.5 262.223C542.119 262.223 541 263.352 541 264.745C541 266.137 542.119 267.266 543.5 267.266ZM543.5 268.275C545.433 268.275 547 266.694 547 264.745C547 262.795 545.433 261.215 543.5 261.215C541.567 261.215 540 262.795 540 264.745C540 266.694 541.567 268.275 543.5 268.275Z" fill="#E1E7F4"/>
<path fill-rule="evenodd" clip-rule="evenodd" d="M854.5 424.599C855.881 424.599 857 423.47 857 422.078C857 420.685 855.881 419.556 854.5 419.556C853.119 419.556 852 420.685 852 422.078C852 423.47 853.119 424.599 854.5 424.599ZM854.5 425.608C856.433 425.608 858 424.027 858 422.078C858 420.128 856.433 418.548 854.5 418.548C852.567 418.548 851 420.128 851 422.078C851 424.027 852.567 425.608 854.5 425.608Z" fill="#E1E7F4"/>
<path fill-rule="evenodd" clip-rule="evenodd" d="M855.5 344.924C856.881 344.924 858 343.795 858 342.403C858 341.01 856.881 339.882 855.5 339.882C854.119 339.882 853 341.01 853 342.403C853 343.795 854.119 344.924 855.5 344.924ZM855.5 345.933C857.433 345.933 859 344.352 859 342.403C859 340.453 857.433 338.873 855.5 338.873C853.567 338.873 852 340.453 852 342.403C852 344.352 853.567 345.933 855.5 345.933Z" fill="#E1E7F4"/>
<path fill-rule="evenodd" clip-rule="evenodd" d="M1632.99 941.681L1488.99 796.45L1489.7 795.737L1633.7 940.968L1632.99 941.681Z" fill="#E1E7F4"/>
<path fill-rule="evenodd" clip-rule="evenodd" d="M1485.11 795.38C1486.08 796.365 1487.66 796.365 1488.64 795.38C1489.62 794.396 1489.62 792.799 1488.64 791.815C1487.66 790.83 1486.08 790.83 1485.11 791.815C1484.13 792.799 1484.13 794.396 1485.11 795.38ZM1484.4 796.094C1485.77 797.472 1487.98 797.472 1489.35 796.094C1490.71 794.715 1490.71 792.48 1489.35 791.101C1487.98 789.723 1485.77 789.723 1484.4 791.101C1483.03 792.48 1483.03 794.715 1484.4 796.094Z" fill="#E1E7F4"/>
<path fill-rule="evenodd" clip-rule="evenodd" d="M1731.42 478.479C1730.8 479.436 1729.72 480.068 1728.5 480.068C1726.57 480.068 1725 478.488 1725 476.538C1725 474.589 1726.57 473.008 1728.5 473.008C1729.47 473.008 1730.34 473.405 1730.98 474.045L1920 283.906V668.667L1731.42 478.479Z" fill="#D9D9D9" fill-opacity="0.2"/>
<g filter="url(#filter0_b_747_1615)">
<path d="M0 892.564H1399.53L1447 939.966H0V892.564Z" fill="#E1E7F4" fill-opacity="0.05"/>
</g>
<g filter="url(#filter1_b_747_1615)">
<path d="M0 501.248L1012 501.248L1164 654.547H0V501.248Z" fill="url(#paint0_linear_747_1615)" fill-opacity="0.05"/>
</g>
<g filter="url(#filter2_b_747_1615)">
<path d="M0 58.4968L1136 58.4971L1182 12.1037H0V58.4968Z" fill="url(#paint1_linear_747_1615)" fill-opacity="0.05"/>
</g>
<defs>
<filter id="filter0_b_747_1615" x="-4" y="888.564" width="1455" height="55.4014" filterUnits="userSpaceOnUse" color-interpolation-filters="sRGB">
<feFlood flood-opacity="0" result="BackgroundImageFix"/>
<feGaussianBlur in="BackgroundImageFix" stdDeviation="2"/>
<feComposite in2="SourceAlpha" operator="in" result="effect1_backgroundBlur_747_1615"/>
<feBlend mode="normal" in="SourceGraphic" in2="effect1_backgroundBlur_747_1615" result="shape"/>
</filter>
<filter id="filter1_b_747_1615" x="-4" y="497.248" width="1172" height="161.299" filterUnits="userSpaceOnUse" color-interpolation-filters="sRGB">
<feFlood flood-opacity="0" result="BackgroundImageFix"/>
<feGaussianBlur in="BackgroundImageFix" stdDeviation="2"/>
<feComposite in2="SourceAlpha" operator="in" result="effect1_backgroundBlur_747_1615"/>
<feBlend mode="normal" in="SourceGraphic" in2="effect1_backgroundBlur_747_1615" result="shape"/>
</filter>
<filter id="filter2_b_747_1615" x="-4" y="8.10352" width="1190" height="54.3936" filterUnits="userSpaceOnUse" color-interpolation-filters="sRGB">
<feFlood flood-opacity="0" result="BackgroundImageFix"/>
<feGaussianBlur in="BackgroundImageFix" stdDeviation="2"/>
<feComposite in2="SourceAlpha" operator="in" result="effect1_backgroundBlur_747_1615"/>
<feBlend mode="normal" in="SourceGraphic" in2="effect1_backgroundBlur_747_1615" result="shape"/>
</filter>
<linearGradient id="paint0_linear_747_1615" x1="1100" y1="577.897" x2="2.10306e-07" y2="577.898" gradientUnits="userSpaceOnUse">
<stop stop-color="#E1E7F4"/>
<stop offset="1" stop-color="#E1E7F4" stop-opacity="0"/>
</linearGradient>
<linearGradient id="paint1_linear_747_1615" x1="1089.86" y1="35.8048" x2="2.08367e-07" y2="35.8048" gradientUnits="userSpaceOnUse">
<stop stop-color="#E1E7F4"/>
<stop offset="1" stop-color="#E1E7F4" stop-opacity="0"/>
</linearGradient>
</defs>
</svg>
